<?xml version="1.0" encoding="utf-8"?>
<!-- Generator: Adobe Illustrator 24.2.3, SVG Export Plug-In . SVG Version: 6.00 Build 0)  -->
<svg version="1.1" id="Layer_1" xmlns="http://www.w3.org/2000/svg" xmlns:xlink="http://www.w3.org/1999/xlink" x="0px" y="0px"
	 viewBox="0 0 3000 2000" style="enable-background:new 0 0 3000 2000;" xml:space="preserve">
<style type="text/css">
	.st0{fill:#4B9FC2;}
	.st1{fill:#152C53;}
	.st2{fill:#4399BD;}
</style>
<g>
	<g>
		<path class="st0" d="M1697.4,1027.4c-4.3-36.8-37.7-67.8-74.9-68.4c-23-0.9-46,8.9-61.2,26.2c-17,17.9-24.4,44-20.4,68.2
			c1,4.2,2.3,8.4,3.6,12.5c2.8,8.3,6.4,16.4,11.7,23.5c17.4,24.5,50,36.5,79.2,29.5C1675.7,1110.7,1704.9,1067.8,1697.4,1027.4z
			 M1642.7,1099.1c-22.5,9.8-51.5,4.5-68.1-14c-18.9-19.3-23.1-50.6-10.7-74.5c8.6-16.7,24.6-29.5,43-33.7
			c33.2-8.5,68.3,17.9,73.7,50.9C1686.8,1056.8,1669.7,1087.8,1642.7,1099.1z"/>
		<path class="st0" d="M1075.1,1054.9c-7.1-37.6-39-68.7-76.4-76.2c-22.6-4-46.8-0.8-66.8,10.9c-24.7,13.6-42.1,38.7-48,66.1
			c-4.2,22.5-1.2,46.7,10.4,66.6c11.9,22.5,33.8,38.7,58,45.8c12.5,3.7,25.7,4.3,38.7,5.1c15.5-2.8,30.5-8.5,44.3-16.2l0.7-0.8
			c10.5-9.7,21.4-19.2,28.2-32.1C1076.6,1103.4,1078.9,1078.2,1075.1,1054.9z M1021.3,1146.5c-25.1,14.6-58.4,14.6-83.2-0.7
			c-28.1-16.6-45.9-50.7-39.9-83.3c5.3-34.1,33.9-63.4,68.3-68.4c39.9-7.2,82,19.9,91.9,59.2
			C1069.4,1088.2,1052.8,1128.5,1021.3,1146.5z"/>
		<path class="st0" d="M961.2,1010.1c-21.2,5.7-38.7,22.8-45.9,43.4c-10.9,29.8,3,66.1,31,81c9.8-16.9,20.3-33.5,28.1-51.4
			c-8-0.7-16-1.1-24-1.3c15.1-22,30.8-43.6,47.7-64.2c-2.7,17.1-10.8,32.8-13.9,49.8c8.4,1.3,16.9,1.2,25.3,1.4
			c-19.1,22.7-37.6,45.9-56,69.2c12.8,5.3,27.2,6.3,40.8,3.9c21.1-4.6,39.4-20.1,47.6-40.1c10.6-24.5,4.9-55-14.1-73.8
			C1011.2,1010.5,984.6,1003,961.2,1010.1z"/>
		<path class="st0" d="M2382.2,1231.1c-19.3-11.9-41.7-17.4-63-24.8c-105.1-31.7-214-49-323-60.4c-183.4-18.5-369.5-15.1-551.5,15.7
			c-93.4,17-187,39.6-272.5,82.1c-9.4,5-19.5,8.9-27.9,15.6c11.3-2.2,22.1-6.3,33.2-9.5c38.1-11.7,76.8-21.4,115.5-30.9
			c96-23.4,193.8-39.1,292.1-48.7c116.5-11,233.8-11.8,350.6-5.9c84,5,167.8,13.8,250.8,27.7
			C2252.3,1202.6,2317.7,1215.3,2382.2,1231.1z"/>
		<path class="st0" d="M1333.5,1305.6v9.1c-16.5,0.3-33.1,0.4-49.6,0.4c-14,0-27.9,0-41.8,0c-23.8-0.1-47.5-0.2-71.3-0.2
			c0.1-3.1,0.3-6.2,0.4-9.3c0,0,0,0,0,0c5.2,0,10.5,0,15.7,0c41.5,0.1,83,0.1,124.4,0H1333.5z"/>
		<path class="st0" d="M2174.7,1305.6c-0.1,2.2-0.4,6.7-0.6,8.9c19.6,1.2,39.4,0.1,59,0.5c34.6-0.4,69.2,0.6,103.8-0.5
			c-0.2-2.2-0.5-6.7-0.6-8.9C2282.4,1305.6,2228.6,1305.6,2174.7,1305.6z"/>
	</g>
	<path class="st1" d="M1171.2,887.6c-8.1-33.6-20.5-66.5-39.9-95.3c-29.6-46.4-72.4-84.4-122.3-107.6
		c-48.5-21.9-103.2-27.8-155.8-21.8c-54.5,6.1-106.9,27.4-151.5,59.1c-55.7,39.6-99.3,95.8-124.1,159.5
		c-21.2,54.9-29.5,115.5-19.3,173.8c8.5,52,30,101.8,61.6,144c49.8,65.8,124.3,113.8,206.2,127.2c44,7.1,90.1,6.1,132.6-8.4
		c43-13.2,81.8-38.4,113.1-70.5c23.6-23.5,42.4-51.4,58.7-80.4C1177.4,1083.1,1192.6,981.5,1171.2,887.6z M604.9,1125.7
		c-19.9-45.1-30.6-95.1-26.4-144.5c5.5-57.3,25.7-113.3,59.3-160.1c43-60.4,107-106,178.8-124.9c57.1-15.6,119.3-14.1,174.6,7.8
		c42.9,16.7,81.7,47,103.1,88.3c12,23.7,19.7,51,14.9,77.6c-1.8,8.1-2.8,16.9-8.5,23.3c-5.2-15.1-12.4-30.2-24.9-40.7
		c-19-16.9-49-21.3-71.4-8.5c-2.9,1.3-5.7,3.5-9.1,3.5c-5.2-2.4-8.3-7.7-11.8-12c-14.2-20.2-35.5-34.5-58-44.1
		c-41.1-16-87.4-13.1-128.9,0.2c-46.9,15.3-89.4,43.2-122.5,79.6c-34.9,37-58.3,84.1-69.4,133.5
		C595.8,1044.4,596.9,1085.9,604.9,1125.7z M1111.2,974.2c0.6,5.3,1,10.5,1.4,15.8c0,0-0.1,0-0.1,0l0-0.1h-21.2
		c-3.1,0.5-5.9,1.8-8.1,4.7c-4.1,5.4,0.8,12.6,6.8,14h0c1,0.2,2,0.3,3,0.1c6.3-0.1,12.6,0.2,18.9-0.1h21.1c1.6,1.7,2.7,4.2,2.7,6.6
		c0,0.3,0,0.7-0.1,1c-0.1,13.2,0.4,26.5-0.8,39.6c-3.1,11.6-8.7,22.7-16.3,32.1c-0.6,0.8-1.3,1.6-2,2.3c-0.2,0.2-0.3,0.3-0.5,0.6
		c-1.5,1.7-3.1,3.4-4.8,4.9c-0.1,0-0.2,0.1-0.2,0.2c-7.5,7.5-19,18.2-27.7,26.4c-2.2,2.4-4.5,4.8-7,7c-1.7,1.5-3.5,3-5.3,4.4
		c-0.1,0.1-0.1,0.1-0.2,0.1c0,0,0,0.1-0.1,0.1c-10.6,8.7-22.1,16.4-34.5,22.3l-0.7,0.8c-13.7,7.7-28.8,13.4-44.3,16.2
		c-33.2,6.4-68.2,7.5-100.6-3.4c-19.7-6.2-37.8-17-52.7-31.2c-1.5-3.5-0.7-7.4-1-11c0-45.6-0.2-91.1-0.1-136.7
		c-0.7-7.6,5.3-14.8,12.7-15.8c19.7-1.5,39.9,1.4,59.4-1.6c5.9-10.3,8.5-22.1,13.7-32.7c2.3-4.8,7.8-6.4,12.7-6.1
		c24-0.1,48,0,72-0.1c5.5-0.2,12,0.9,14.6,6.4c4.7,9.8,7.1,20.5,11.9,30.3c1.3,3.3,5.3,2.6,8.1,3
		C1065,974.5,1088.1,973.6,1111.2,974.2z M1073.7,960.7v-3.5h36.2v3.5H1073.7z M884.9,1189.5c54.9,17.3,115.9,8.5,166.4-17.9
		c-31,33.5-71.5,58.8-116.1,69.5c-34.3,8.5-70.8,6.8-104.3-4.4c-31.5-11-60.2-30-82.7-54.7c-27.3-31.9-46-71.3-51.5-113.1
		c-8.2-58.6,8.5-119.6,42.8-167.4c34.1-47.6,86.7-82.9,145.1-91.5c15.7-2.6,33-1.3,46.6,7.6c-38.5,4.8-74.1,24.3-102.6,50.1
		c-40.4,38-65.7,92.6-64.9,148.4C762.5,1091.3,812,1166.9,884.9,1189.5z M1006.4,1273.1c-41.7,26.2-91.6,38.4-140.6,36.1
		c-43.8-2.2-87.1-14.3-125.4-35.7c-33.7-17.9-62.6-44.5-83.2-76.6c-23.6-36.4-35.2-79.7-37.9-122.8c-2.1-69.7,24.2-139.7,71.9-190.6
		c35.1-39,82.5-66.8,133.7-78.2c-7.5,4.5-15.7,7.7-23.2,12.1c-49.5,28.6-87.7,75-109.2,127.7c-19,48.1-24,102.2-11.2,152.5
		c11.1,42.2,32.9,82.3,65.2,112c28,26.2,63,44.8,100.6,52.5c51.5,10.6,106.6,1.6,152.5-24.1c30.1-16.4,56-39.5,79-64.7
		c22-24.6,38.1-53.7,60.2-78.2C1113.9,1165.7,1070.4,1232.2,1006.4,1273.1z M1154.2,1022.1c-1.6-8.1-0.6-17-5.8-23.9
		c-3.8-6.2-11-8.6-17.8-9.8c-1.6-11.3-0.7-23.4-5.9-33.9c-3.1-6.5-10.1-10.8-17.4-10.2c-12.3,0.3-24.7-0.8-37,0.6
		c-6.3,0.8-9.7,6.8-12.3,11.9c-3.8-0.1-7.6-0.3-11.4-0.4c-4.1-9.8-6-20.9-12.8-29.4c-6.5-7.5-16.8-10.5-26.5-10.1
		c-23.9,0.4-47.9-0.1-71.8,0.2c-9.9,0.4-20.9,3.3-26.4,12.2c-5.1,8.8-6.8,19-11.7,27.9c-15.9,0.3-31.8-0.4-47.7,0.3
		c-16.9,0.8-30.6,16.5-30.4,33.2c-0.5,43.1,0.1,86.2-0.3,129.3c-19.3-27-32.6-58.7-34.5-92.1c-4-51.4,16.6-103.4,52.7-139.9
		c23.4-23.8,53.7-40.4,86.1-48.5c11.5-2.4,23.7-4.9,35.3-1.9c8.4,5.5,12.6,15.2,19.4,22.3c6.1,7.5,17.4,11.1,26.3,6.5
		c9.8-4.6,19.9-10.1,31.1-9.6c18.2,0.8,34.3,13.3,42.1,29.4c4.3,7.8,5.3,16.9,9.7,24.6c5.9,9,20.2,8.5,27.3,1.2
		c8.7-8.6,11.1-21.2,13.6-32.6c3-14,2.6-28.5,2.7-42.7C1155.2,894.7,1165.5,959.7,1154.2,1022.1z"/>
	<path class="st1" d="M1392.1,1042.2c-8.8-9.1-22.2-10.9-34.3-12c-33.3-2.3-66.7,0-100,2.5c-15.2,0.5-30.4,2.1-45.6,0
		c2.2-5.1,5.7-9.4,9.4-13.3c13-14.8,27.7-28.1,43.3-40c35.1-27.1,73.4-50.3,114.7-66.7c11.4-4.6,23.3-8.7,35.8-8.8
		c-8.1,10.6-19.4,18.3-26.7,29.6c-3.7,5.4-0.1,13.9,6.4,15.1c7.7,2.9,14.5-2.8,19.5-8c10.4-10.6,23.4-20.5,27-35.8
		c2.3-9.4-4.2-18.7-12.6-22.4c-11.4-5.2-24.5-4.7-36.6-2.7c-38.1,6.2-72.8,24.5-104.7,45.4c-32.2,21.9-62.8,47-86.3,78.4
		c-8.3,11.8-18.2,26.7-12,41.6c4,10.7,16.5,13.5,26.7,13.4c47.3,0.4,94.3-8.1,141.6-5.3c5.6,0.4,11.3,1.4,16.1,4.6
		c-7.4,9.6-16.8,17.7-27.1,24c-26.2,16-55.4,26.4-82.5,40.8c-45,23.1-88.2,49.4-132.4,73.9c-6.3,4.1-13.7,6.7-18.8,12.4
		c1.9,7.9,9.9,12.6,14.5,19c20.4-12,42.4-21,63.4-31.9c49.1-24.6,99.4-46.8,147.3-73.6c19.2-11,38.8-22.7,52.9-40.1
		C1400.7,1071.2,1401.8,1053.3,1392.1,1042.2z"/>
	<path class="st1" d="M2090.9,973c-0.3,12.3-1.4,24.7-7.2,35.8c-15.5,32.5-39,60.9-66.3,84.2c-6.8,5.7-14.6,11.4-23.8,11.9
		c-4.2,0.3-4.6-4.6-3.9-7.5c3.3-17.3,14.1-31.7,23.2-46.2c3.5-5.8,9.6-11.3,8.6-18.7c-1.3-8.4-12.5-13.3-19.4-8
		c-11.7,8.9-21.1,20.6-32.6,29.8c-13.5,10.9-25.9,23-39.1,34.2c15.8-27.1,35.7-51.6,55.2-76c2.8-4.4-0.5-9.8-1.8-14.2
		c-2.3-5.7-10.3-6.1-14.6-2.5c-12.6,10.1-21.5,23.9-31.2,36.6c-13.5,19.6-27.2,39.7-34.9,62.4c-9.2,4.2-20.8,2.9-29.2-2.7
		c-13-8.7-21.8-22.1-31.1-34.3c29.7-14,57.9-30.9,87.5-45c5.4-3,11.2-5.5,15.5-10.1c3.2-8.9-5.6-19.7-14.6-19.8
		c-9.3,2.1-16.9,8.4-25.5,12.3c-19.4,9.5-37.8,21.1-57.3,30.6c23.3-34.9,48.1-68.9,73.3-102.6c4.6-5.8,6.4-14.1,2.7-20.8
		c-3.9-8.1-17.4-9.5-21.8-1.1c-31.8,41-61.2,84.1-87.2,129.1c-4.1,6-6.5,13.7-13,17.6c-16.2,11-32.7,21.5-49.8,31
		c-8.2,4.1-16.5,9.2-25.8,9.9c-0.7-0.8-2.2-2.3-2.9-3.1c-1.1-9.7,3.6-19,7.6-27.6c11-19.9,24.9-38.3,41.8-53.5
		c5.4-4.6,10.7-9.8,17.9-11.5c-3.6,9.1-10.6,16.3-14.2,25.4c-0.8,5.1,3.9,8.4,7.9,10.3c4.8-3.1,9.1-7,12.3-11.8
		c5.1-7.4,11.4-14.7,12.5-23.9c1.7-11.8-8.1-23.9-20.2-24c-12-0.7-22.1,6.6-30.8,14c-25.7,22.6-46.7,51.8-56,85
		c-3.1,11.2-3.2,25.3,6.2,33.6c10.1,8.2,24.6,6.2,35.6,1.1c17.8-8.4,34.2-19.6,49.7-31.6c-5.2,12-13,24.2-12,37.8
		c0.9,9.3,15.1,14.6,20.5,6.2c7-14.6,13.2-29.6,21.3-43.7c10.4,15.1,23.3,29.3,40.2,37.2c12,5.7,27.5,6,38.2-2.9
		c2.3,12.6,18.1,16.3,27.7,9.4c15.4-10.5,27.7-24.8,41.1-37.7c-4.2,12-6.2,26.9,2.2,37.7c8.6,9.7,23.8,15.2,36.1,9.2
		c17.8-7.8,31.7-22.2,44.4-36.5c19.3-23.1,36.8-49,44.3-78.5C2100.5,997.3,2101.5,981.6,2090.9,973z"/>
	<path class="st1" d="M1507.9,1099.2c14.6-8.1,25.7-21,36.7-33.3c-1.4-4.1-2.6-8.3-3.6-12.5c-12.8,9.5-24.4,20.8-39,27.5
		c4.9-22.7,18.6-41.8,27.2-63c5.8-11.3-7.2-26.5-19.2-21c-26.3,11.9-45.4,34.3-65.8,53.9c27.7-52,60.2-101.3,94.2-149.3
		c6.4-8-0.5-22.5-10.9-22.2c-7.8,0.1-12.9,7-17,12.8c-48.2,69.1-89.1,143.5-119.9,222c-2.4,6.3-5.8,14.9,0.1,20.3
		c6.9,6.2,18.1,2.3,22.3-5.2c12.4-19.7,25.1-39.3,39.8-57.4c13.6-16.8,27.8-33.6,45.6-46.1c-5.8,12.5-11.8,24.9-16.2,37.9
		c-2.6,8-4.5,16.9-1.9,25.2C1483.8,1099.6,1498.1,1105.2,1507.9,1099.2z"/>
	<path class="st1" d="M2353.5,985.6c-19.5,9.6-34.6,25.6-50.3,40.2c-17.9,16.1-35,33.1-52.3,49.8c-12.2,12-23.6,24.9-37.3,35.3
		c7.8-27.6,22.8-52.4,34.2-78.5c2.6-11-15.5-19.1-21.4-9.1c-9.1,14.7-15.4,30.9-23.5,46.2c-8.9,9-19.8,15.8-30.3,22.8
		c-6.5,3.7-12.5,8.8-20.2,9.6c2.1-16.5,12.3-30.1,20.5-44c5.6-9.5,12.3-18.3,18.7-27.3c3.7-4.5,1.2-10.3,0-15.2
		c-1-5.2-6.8-8.9-11.9-7.3c-6.5,5.7-12.1,12.3-18.2,18.4c-3-8.8-11.7-15.6-21.3-13.8c-17.4,3.2-29.8,17.2-41.5,29.3
		c-16.8,19.2-32,41.3-37,66.7c1.8,9.2,10.9,16.1,20.2,15.9c7-0.4,13-4.7,18.1-9.2c11.6-10.6,22.3-22.1,33.5-33.1
		c-1.9,9.2-5.7,19.7-0.1,28.4c6,10.2,20.4,10.6,30,5.5c12.4-6.6,22.5-16.6,32.9-25.8c-4.3,12.4-9.1,26-5.4,39.3
		c4,9.3,15.9,12.6,25.2,11c9.4-4.6,16-13.4,23.4-20.7c30.1-33.3,60.5-66.2,92.4-97.9c13.3-12.4,23.5-28.4,40.1-36.9
		C2367.2,979.6,2359.4,983.4,2353.5,985.6z M2135.7,1055.6c-14.8,12.9-27.3,28.3-43.3,39.8c6.9-15.2,18.2-27.7,29.5-39.7
		c8.9-9.1,18.8-18,31.1-22.1C2150.8,1043.2,2142.2,1049,2135.7,1055.6z"/>
	<path class="st1" d="M1659.6,1041.4c0.3-2.3-1.7-4.3-3.5-5.7c-3.4-2.6-7-4.9-10.6-7.1c-13-8.1-25.9-16.1-38.9-24.2
		c-2-1.2-4.1-2.5-6.4-2.8c-7-0.9-6.5,5.6-6.5,10.3c0,6.8,0,13.6,0,20.4c0,13.4,0,26.8,0,40.1c0,3.3,0.6,7.4,3.7,8.4
		c2.2,0.7,4.4-0.6,6.4-1.8c15.9-9.9,31.7-19.9,47.6-29.8c2.3-1.4,4.6-2.9,6.5-4.8c0.7-0.7,1.4-1.6,1.7-2.6
		C1659.5,1041.7,1659.5,1041.6,1659.6,1041.4z"/>
	<path class="st1" d="M2406.7,1094.5c-24.7,12.9-50.2,24.7-77.2,31.8c-7.2,0.8-17.7,4-22.5-3.4c-0.2-13.9,8.5-26.1,16.2-37.2
		c4.3,2.9,8.9,6.2,14.4,5.7c14.9-0.7,28.6-7.9,40.6-16.3c9.8-7.3,19.5-16.4,22.6-28.7c2.9-11.8-4.8-24.7-16.2-28.4
		c-9.1-3-18.7,0.3-27,4.2c-26.7,14.8-48.9,37.4-63.4,64.3c-6.6,13.3-12.9,29.6-5.9,44c5.2,11.7,18.8,16.1,30.8,16.2
		c23.7,0,45.2-11.5,65.3-22.8c20.1-12.3,39.6-25.8,56.2-42.7c2.4-2.3,4.5-5,5.5-8.3C2432.5,1079.2,2420.2,1087.9,2406.7,1094.5z
		 M2383.3,1039.9c-0.1,11.1-10.7,18.3-19.2,23.7c-9.3,5.3-18.9,12.1-30.2,10.8C2347.2,1059.2,2363.7,1045.7,2383.3,1039.9z"/>
	<g>
		<path class="st1" d="M1426.6,1310.9c-1.9-2.4-4.2-4.3-6.9-5.5c-2.7-1.3-6.2-2.5-10.4-3.7c-3-0.9-5.4-1.7-7.2-2.5
			c-1.7-0.7-3.2-1.7-4.4-2.9c-1.1-1.1-1.7-2.6-1.7-4.3c0-1.9,0.8-3.4,2.5-4.4c1.7-1.1,3.9-1.6,6.8-1.6c2.6,0,5.5,0.5,8.9,1.6
			c3.3,1.1,6.6,2.6,9.8,4.5l4.8-10.4c-3.1-2-6.6-3.6-10.6-4.8c-3.9-1.2-7.9-1.8-12-1.8c-4.6,0-8.7,0.7-12.3,2.2
			c-3.5,1.5-6.2,3.6-8.2,6.3c-2,2.7-2.9,5.9-2.9,9.5c0,3.9,1,7.1,2.9,9.5c1.9,2.4,4.2,4.2,6.8,5.4c2.7,1.2,6.1,2.4,10.3,3.6
			c3.1,0.9,5.5,1.7,7.3,2.4c1.8,0.7,3.3,1.6,4.4,2.8c1.2,1.2,1.7,2.6,1.7,4.4c0,2.2-1,3.9-2.9,5.2s-4.5,1.9-7.8,1.9
			c-3.4,0-7-0.8-11-2.5c-3.9-1.6-7.5-3.9-10.6-6.8l-5,10.1c3.4,3,7.5,5.5,12.1,7.3c4.6,1.8,9.4,2.7,14.3,2.7c4.6,0,8.7-0.7,12.3-2.2
			c3.6-1.5,6.4-3.6,8.5-6.5c2-2.8,3.1-6.1,3.1-9.9C1429.4,1316.5,1428.5,1313.3,1426.6,1310.9z"/>
		<path class="st1" d="M1493.4,1276.1v10.6h19.4v51.7h12v-51.7h19.4v-10.6H1493.4z"/>
		<path class="st1" d="M1653.7,1276.1v36.7c0,4.9-1.4,8.8-4.1,11.6c-2.7,2.8-6.4,4.2-11.1,4.2s-8.4-1.4-11.2-4.2
			c-2.8-2.8-4.2-6.6-4.2-11.6v-36.7h-11.9v36.7c0,5.4,1.1,10.1,3.3,14.1c2.2,4,5.3,7.1,9.5,9.2c4.1,2.1,9,3.2,14.6,3.2
			c5.5,0,10.3-1.1,14.4-3.2s7.2-5.2,9.4-9.2c2.2-4,3.3-8.7,3.3-14.1v-36.7H1653.7z"/>
		<path class="st1" d="M1793.5,1291.1c-2.8-4.7-6.6-8.5-11.6-11.1c-4.9-2.6-10.5-4-16.7-4h-25.9v62.3h25.5c6.3,0,12-1.3,17-4
			c5-2.7,8.9-6.4,11.7-11.1c2.8-4.7,4.2-10.1,4.2-16.1C1797.7,1301.3,1796.3,1295.9,1793.5,1291.1z M1782.9,1318
			c-1.7,3.1-4.1,5.5-7.2,7.3c-3.1,1.8-6.5,2.6-10.3,2.6h-14.2v-41.3h13.8c3.9,0,7.3,0.9,10.5,2.6c3.1,1.7,5.5,4.2,7.3,7.4
			c1.8,3.2,2.7,6.8,2.7,10.7S1784.6,1314.9,1782.9,1318z"/>
		<path class="st1" d="M1867.7,1276.1v62.3h11.9v-62.3H1867.7z"/>
		<path class="st1" d="M2011.7,1290.9c-2.9-4.9-6.9-8.7-12-11.5c-5.1-2.8-10.7-4.2-16.9-4.2c-6.2,0-11.8,1.4-16.9,4.2
			c-5.1,2.8-9.1,6.6-12,11.5c-2.9,4.9-4.4,10.3-4.4,16.2c0,5.9,1.4,11.4,4.4,16.3c2.9,4.9,6.9,8.8,12,11.6
			c5.1,2.9,10.7,4.3,16.9,4.3c6.2,0,11.8-1.4,16.9-4.3c5.1-2.8,9.1-6.7,12-11.6c2.9-4.9,4.4-10.3,4.4-16.3
			C2016.1,1301.2,2014.7,1295.8,2011.7,1290.9z M2001.1,1317.9c-1.9,3.3-4.4,5.9-7.6,7.8c-3.2,1.9-6.7,2.8-10.4,2.8
			c-3.8,0-7.3-0.9-10.6-2.8c-3.2-1.9-5.8-4.5-7.7-7.8c-1.9-3.3-2.9-6.8-2.9-10.8c0-3.9,1-7.5,2.9-10.7c1.9-3.2,4.5-5.8,7.7-7.7
			c3.3-1.9,6.8-2.8,10.6-2.8c3.7,0,7.2,0.9,10.4,2.8c3.2,1.9,5.8,4.4,7.6,7.7c1.9,3.3,2.8,6.8,2.8,10.7
			C2003.9,1311.1,2003,1314.7,2001.1,1317.9z"/>
		<path class="st1" d="M2128,1310.9c-1.9-2.4-4.2-4.3-6.9-5.5c-2.7-1.3-6.2-2.5-10.4-3.7c-3-0.9-5.4-1.7-7.2-2.5
			c-1.7-0.7-3.2-1.7-4.4-2.9c-1.2-1.1-1.7-2.6-1.7-4.3c0-1.9,0.8-3.4,2.5-4.4c1.6-1.1,3.9-1.6,6.8-1.6c2.6,0,5.5,0.5,8.9,1.6
			c3.3,1.1,6.6,2.6,9.8,4.5l4.8-10.4c-3.1-2-6.6-3.6-10.5-4.8c-3.9-1.2-7.9-1.8-12-1.8c-4.6,0-8.7,0.7-12.2,2.2
			c-3.5,1.5-6.2,3.6-8.2,6.3c-2,2.7-2.9,5.9-2.9,9.5c0,3.9,1,7.1,2.9,9.5c1.9,2.4,4.2,4.2,6.8,5.4s6.1,2.4,10.3,3.6
			c3.1,0.9,5.5,1.7,7.3,2.4c1.8,0.7,3.3,1.6,4.4,2.8c1.2,1.2,1.7,2.6,1.7,4.4c0,2.2-1,3.9-2.9,5.2c-1.9,1.3-4.5,1.9-7.8,1.9
			c-3.4,0-7-0.8-10.9-2.5c-3.9-1.6-7.5-3.9-10.6-6.8l-5,10.1c3.4,3,7.5,5.5,12.1,7.3c4.6,1.8,9.4,2.7,14.3,2.7
			c4.6,0,8.7-0.7,12.3-2.2c3.6-1.5,6.4-3.6,8.5-6.5c2-2.8,3.1-6.1,3.1-9.9C2130.8,1316.5,2129.9,1313.3,2128,1310.9z"/>
	</g>
	<rect x="2174.1" y="1305.6" class="st2" width="162.8" height="9.5"/>
	<rect x="1170.7" y="1305.6" class="st2" width="162.8" height="9.5"/>
</g>
</svg>
